<?xml version="1.0" standalone="no"?>
<!DOCTYPE svg PUBLIC "-//W3C//DTD SVG 20010904//EN"
 "http://www.w3.org/TR/2001/REC-SVG-20010904/DTD/svg10.dtd">
<svg version="1.0" xmlns="http://www.w3.org/2000/svg"
 width="290.000000pt" height="290.000000pt" viewBox="0 0 290.000000 290.000000"
 preserveAspectRatio="xMidYMid meet">
<metadata>
Created by potrace 1.16, written by Peter Selinger 2001-2019
</metadata>
<g transform="translate(0.000000,290.000000) scale(0.100000,-0.100000)"
fill="#000000" stroke="none">
<path d="M1363 2395 c-65 -18 -126 -48 -175 -87 -32 -25 -38 -36 -38 -69 0
-21 2 -39 5 -39 3 0 33 22 67 50 60 49 140 83 218 93 96 12 226 -31 303 -102
24 -23 47 -41 51 -41 3 0 6 18 6 39 0 33 -6 44 -37 70 -105 87 -267 121 -400
86z"/>
<path d="M1385 2267 c-61 -21 -97 -42 -133 -80 -59 -61 -20 -106 42 -50 56 53
87 66 162 71 88 5 128 -7 196 -60 38 -31 55 -39 66 -31 9 5 17 14 19 20 7 20
-46 70 -108 103 -51 27 -77 34 -133 37 -41 1 -88 -3 -111 -10z"/>
<path d="M1407 2135 c-47 -16 -87 -52 -87 -77 0 -24 28 -35 49 -19 9 6 35 21
58 32 36 17 49 18 81 9 21 -5 47 -19 57 -30 21 -23 48 -26 64 -6 27 32 -76
106 -149 105 -19 0 -52 -6 -73 -14z"/>
<path d="M1250 1915 c0 -41 -2 -75 -3 -75 -2 0 -19 7 -36 16 -41 21 -113 14
-150 -13 -88 -66 -88 -210 0 -276 37 -27 106 -33 152 -14 32 14 37 14 37 1 0
-10 12 -14 45 -14 l45 0 0 225 0 225 -45 0 -45 0 0 -75z m-25 -150 c53 -52 16
-145 -56 -145 -48 0 -79 34 -79 84 0 79 81 116 135 61z"/>
<path d="M1960 1920 l0 -39 85 -3 85 -3 -40 -45 c-25 -28 -39 -55 -40 -72 0
-24 4 -28 29 -28 16 0 42 -5 58 -11 47 -18 55 -47 23 -79 -24 -24 -102 -27
-140 -5 -37 21 -45 19 -63 -20 l-17 -36 42 -19 c52 -24 163 -27 213 -6 45 19
75 69 75 125 0 36 -6 49 -34 77 -19 19 -41 34 -50 34 -24 0 -20 7 29 62 31 35
45 59 45 79 l0 29 -150 0 -150 0 0 -40z"/>
<path d="M410 1705 l0 -165 44 0 44 0 4 101 c3 91 6 103 27 120 13 11 36 19
52 19 28 0 29 2 29 45 0 52 -13 57 -73 26 -36 -18 -37 -18 -37 0 0 16 -8 19
-45 19 l-45 0 0 -165z"/>
<path d="M683 1853 c-47 -16 -50 -23 -27 -58 13 -20 20 -22 40 -14 14 5 45 9
69 9 34 0 47 -5 60 -22 l16 -23 -78 -11 c-93 -12 -118 -24 -131 -63 -15 -42
-1 -82 38 -108 50 -34 136 -28 162 11 5 6 8 1 8 -11 0 -20 5 -23 45 -23 l45 0
0 110 c0 139 -12 173 -72 200 -51 23 -116 24 -175 3z"/>
<path d="M1430 1705 l0 -165 45 0 45 0 0 165 0 165 -45 0 -45 0 0 -165z"/>
<path d="M1685 1856 c-102 -46 -132 -180 -58 -258 71 -77 185 -79 261 -5 79
76 58 208 -42 256 -48 24 -117 27 -161 7z m134 -92 c12 -15 21 -41 21 -59 0
-50 -33 -85 -80 -85 -47 0 -80 35 -80 85 0 50 33 85 80 85 30 0 43 -6 59 -26z"/>
<path d="M2380 1075 l0 -225 50 0 50 0 0 43 c0 32 6 49 21 63 21 19 22 19 53
-20 73 -92 66 -87 125 -84 l53 3 -72 93 -73 94 69 69 68 69 -53 0 c-51 0 -56
-3 -119 -60 l-67 -60 -3 120 -3 120 -49 0 -50 0 0 -225z"/>
<path d="M940 1210 c0 -36 -2 -40 -25 -40 -22 0 -25 -4 -25 -35 0 -31 3 -35
25 -35 24 0 25 -2 25 -67 0 -38 5 -85 11 -106 17 -63 93 -94 163 -67 23 8 24
12 15 39 -9 25 -17 30 -47 33 l-37 3 -3 83 -3 82 41 0 c39 0 40 1 40 35 0 34
-1 35 -40 35 l-40 0 0 40 0 40 -50 0 -50 0 0 -40z"/>
<path d="M140 1015 l0 -165 50 0 50 0 0 104 c0 101 1 105 26 125 36 28 68 26
93 -5 18 -23 21 -41 21 -125 l0 -99 45 0 45 0 0 115 c0 131 -11 163 -63 195
-40 25 -92 25 -140 1 -36 -18 -37 -18 -37 0 0 16 -8 19 -45 19 l-45 0 0 -165z"/>
<path d="M620 1158 c-50 -25 -90 -89 -90 -142 0 -45 37 -113 76 -136 51 -32
130 -37 187 -12 51 23 58 39 26 68 -16 15 -24 16 -39 6 -32 -20 -107 -15 -130
8 -11 11 -20 25 -20 30 0 6 47 10 121 10 l122 0 -6 46 c-13 117 -137 179 -247
122z"/>
<path d="M1200 1018 l57 -163 45 -3 46 -3 31 87 c18 48 35 93 39 100 4 8 21
-26 42 -86 l34 -100 46 0 45 0 55 157 c30 86 57 161 59 166 1 4 -16 7 -39 5
l-43 -3 -36 -102 c-20 -57 -38 -103 -42 -103 -3 0 -20 47 -39 105 l-34 105
-40 0 -41 0 -39 -112 -40 -112 -36 110 -37 109 -45 3 -45 3 57 -163z"/>
<path d="M1799 1157 c-31 -16 -51 -36 -66 -67 -29 -56 -29 -96 0 -150 44 -83
148 -113 237 -67 61 30 90 76 90 142 0 66 -29 112 -90 143 -57 28 -115 28
-171 -1z m146 -82 c53 -52 16 -145 -56 -145 -48 0 -79 34 -79 84 0 79 81 116
135 61z"/>
<path d="M2130 1015 l0 -165 45 0 45 0 0 94 c0 108 12 133 70 145 33 6 35 10
38 49 3 38 1 42 -20 42 -13 0 -38 -9 -55 -20 -33 -20 -33 -20 -33 0 0 17 -7
20 -45 20 l-45 0 0 -165z"/>
</g>
</svg>
