<?xml version="1.0" standalone="no"?>
<!DOCTYPE svg PUBLIC "-//W3C//DTD SVG 20010904//EN"
 "http://www.w3.org/TR/2001/REC-SVG-20010904/DTD/svg10.dtd">
<svg version="1.0" xmlns="http://www.w3.org/2000/svg"
 width="290.000000pt" height="290.000000pt" viewBox="0 0 290.000000 290.000000"
 preserveAspectRatio="xMidYMid meet">
<metadata>
Created by potrace 1.16, written by Peter Selinger 2001-2019
</metadata>
<g transform="translate(0.000000,290.000000) scale(0.100000,-0.100000)"
fill="#000000" stroke="none">
<path d="M1363 2395 c-65 -18 -126 -48 -175 -87 -32 -25 -38 -36 -38 -69 0
-44 8 -48 35 -19 26 29 114 85 155 99 141 49 298 19 403 -78 24 -23 47 -41 51
-41 3 0 6 18 6 39 0 33 -6 44 -37 71 -105 86 -267 121 -400 85z"/>
<path d="M1385 2267 c-61 -21 -97 -42 -133 -80 -59 -61 -19 -107 42 -49 48 47
111 72 184 72 73 0 119 -17 180 -67 44 -36 69 -38 80 -4 6 18 -68 84 -124 111
-60 28 -170 36 -229 17z"/>
<path d="M1407 2135 c-47 -16 -87 -52 -87 -77 0 -24 28 -35 49 -19 9 6 35 21
58 32 36 17 49 18 81 9 21 -5 47 -19 57 -30 21 -23 48 -26 64 -6 27 32 -76
106 -149 105 -19 0 -52 -6 -73 -14z"/>
<path d="M1250 1915 c0 -41 -2 -75 -3 -75 -2 0 -19 7 -36 16 -41 20 -112 14
-150 -13 -33 -24 -71 -98 -71 -138 0 -40 38 -114 71 -138 37 -27 106 -33 152
-14 32 14 37 14 37 1 0 -10 12 -14 45 -14 l45 0 0 225 0 225 -45 0 -45 0 0
-75z m-25 -150 c53 -52 16 -145 -56 -145 -48 0 -79 34 -79 84 0 79 81 116 135
61z"/>
<path d="M1960 1920 l0 -40 86 0 86 0 -41 -49 c-51 -61 -56 -101 -12 -101 16
0 42 -5 58 -11 47 -18 55 -47 23 -79 -24 -24 -102 -27 -140 -5 -37 21 -45 19
-63 -20 l-17 -36 42 -19 c51 -23 163 -27 211 -6 50 21 70 50 75 111 4 52 3 56
-31 90 -19 19 -42 35 -51 35 -24 0 -20 10 20 51 32 33 60 100 46 113 -3 4 -70
6 -149 6 l-143 0 0 -40z"/>
<path d="M410 1705 l0 -165 45 0 45 0 0 79 c0 121 21 161 84 161 24 0 26 3 26
45 0 52 -13 57 -73 26 -36 -18 -37 -18 -37 0 0 16 -8 19 -45 19 l-45 0 0 -165z"/>
<path d="M687 1856 c-21 -8 -41 -17 -45 -21 -11 -10 24 -60 39 -56 8 2 39 6
69 9 43 3 59 0 69 -12 26 -31 6 -46 -59 -46 -73 0 -114 -19 -128 -59 -15 -42
-1 -82 38 -108 38 -27 106 -31 136 -8 25 19 34 19 34 0 0 -11 12 -15 45 -15
l45 0 0 110 c0 124 -12 166 -55 194 -37 25 -138 31 -188 12z"/>
<path d="M1430 1705 l0 -165 45 0 45 0 0 165 0 165 -45 0 -45 0 0 -165z"/>
<path d="M1685 1856 c-102 -46 -132 -180 -58 -258 71 -77 185 -79 261 -5 79
76 58 208 -42 256 -48 24 -117 27 -161 7z m134 -92 c12 -15 21 -41 21 -59 0
-50 -33 -85 -80 -85 -47 0 -80 35 -80 87 0 75 95 113 139 57z"/>
<path d="M2380 1076 l0 -226 50 0 50 0 0 43 c0 32 6 49 21 63 21 19 22 19 53
-20 73 -92 66 -87 125 -84 l53 3 -72 93 -73 94 69 69 68 69 -54 0 c-53 -1 -58
-3 -120 -60 l-65 -59 -5 117 -5 117 -47 3 -48 3 0 -225z"/>
<path d="M940 1210 c0 -35 -3 -40 -24 -40 -21 0 -23 -4 -21 -32 2 -25 8 -34
24 -36 19 -3 21 -10 21 -70 0 -37 5 -84 11 -105 17 -63 93 -94 163 -67 23 8
24 12 15 39 -9 25 -17 30 -47 33 l-37 3 -3 83 -3 82 41 0 c39 0 40 1 40 35 0
34 -1 35 -40 35 l-40 0 0 40 0 40 -50 0 -50 0 0 -40z"/>
<path d="M140 1015 l0 -165 50 0 50 0 0 104 c0 101 1 105 26 125 35 27 59 26
89 -4 23 -22 25 -31 25 -125 l0 -100 45 0 45 0 0 119 c0 106 -2 121 -23 152
-41 61 -110 76 -180 40 -36 -18 -37 -18 -37 0 0 16 -8 19 -45 19 l-45 0 0
-165z"/>
<path d="M620 1158 c-50 -26 -90 -89 -90 -143 0 -17 10 -51 23 -75 41 -82 150
-113 245 -70 46 21 52 38 22 65 -17 15 -24 16 -46 7 -40 -19 -101 -15 -124 8
-11 11 -20 25 -20 30 0 6 47 10 121 10 l122 0 -6 46 c-13 117 -137 179 -247
122z"/>
<path d="M1151 1168 c0 -7 24 -80 53 -163 l53 -150 45 -3 46 -3 32 91 c18 50
36 93 40 95 4 3 23 -38 41 -90 l32 -95 46 0 46 0 52 148 c29 81 55 156 59 165
6 16 1 18 -36 15 l-43 -3 -36 -102 c-20 -57 -38 -103 -42 -103 -3 0 -20 47
-39 105 l-34 105 -40 0 -41 0 -34 -98 c-19 -53 -37 -101 -41 -105 -4 -5 -23
38 -42 95 l-35 103 -41 3 c-30 2 -42 -1 -41 -10z"/>
<path d="M1800 1158 c-32 -17 -51 -37 -67 -68 -29 -56 -29 -96 0 -150 44 -83
148 -113 237 -67 61 30 90 76 90 142 0 92 -59 153 -156 162 -49 4 -67 1 -104
-19z m145 -83 c53 -52 16 -145 -56 -145 -48 0 -79 34 -79 84 0 79 81 116 135
61z"/>
<path d="M2130 1015 l0 -165 45 0 45 0 0 94 c0 108 12 133 70 145 33 6 35 10
38 49 3 38 1 42 -20 42 -13 0 -38 -9 -55 -20 -33 -20 -33 -20 -33 0 0 17 -7
20 -45 20 l-45 0 0 -165z"/>
</g>
</svg>
